# xmcd
# Track frame offsets:
# 150
# 12100
# 27310
# 39310
# 49422
# 65805
# 81135
# 89567
# 103337
# 113620
# 123877
#
# Disc length: 1760 seconds
# Revision: 0
# Processed by: cddbd v1.4PL0 Copyright (c) Steve Scherf et al.
# Submitted via: VisiTrax 2.9.5.180 - For more info visit www.synapsa.com
#
DISCID=8e06de0b
DTITLE=Van Warren - Daddy's fiddle
DYEAR=1900
DGENRE=Irsk
TTITLE0=Daddy's fiddle
TTITLE1=Sweet, sweet eyes of blue
TTITLE2=It took a long time
TTITLE3=Chains
TTITLE4=Arkansas wine
TTITLE5=Don't drop that quarter
TTITLE6=Goodbye, good deal she's gone
TTITLE7=Some wounds never heal
TTITLE8=It don't take much
TTITLE9=Gonna drink til sunrise
TTITLE10=Yeallow hammer rag
EXTD=
EXTT0=
EXTT1=
EXTT2=
EXTT3=
EXTT4=
EXTT5=
EXTT6=
EXTT7=
EXTT8=
EXTT9=
EXTT10=
PLAYORDER=
